<?xml version="1.0" standalone="no"?>
<!DOCTYPE svg PUBLIC "-//W3C//DTD SVG 20010904//EN"
 "http://www.w3.org/TR/2001/REC-SVG-20010904/DTD/svg10.dtd">
<svg version="1.0" xmlns="http://www.w3.org/2000/svg"
 width="488.000000pt" height="112.000000pt" viewBox="0 0 488.000000 112.000000"
 preserveAspectRatio="xMidYMid meet">
<metadata>
Created by potrace 1.13, written by Peter Selinger 2001-2015
</metadata>
<g transform="translate(0.000000,112.000000) scale(0.100000,-0.100000)"
fill="#000000" stroke="none">
<path d="M1581 1103 c-118 -42 -189 -177 -178 -337 3 -44 14 -106 25 -137 27
-77 96 -183 129 -199 16 -8 31 -16 36 -18 4 -2 -15 28 -42 68 -78 113 -104
187 -104 295 0 145 45 235 140 281 44 22 62 26 103 21 59 -7 121 -37 149 -73
69 -87 33 -224 -59 -224 -46 0 -55 8 -34 31 33 37 -8 73 -51 45 -40 -26 -32
-77 16 -101 42 -22 101 -19 140 8 92 61 92 195 -1 287 -68 69 -168 88 -269 53z"/>
<path d="M3105 1104 c-152 -56 -197 -268 -73 -344 61 -37 147 -21 168 31 15
35 8 56 -24 71 -42 19 -76 -23 -41 -52 22 -18 9 -30 -35 -30 -75 0 -119 93
-84 178 37 89 150 141 246 113 62 -19 129 -91 152 -165 43 -135 14 -278 -84
-423 -47 -70 -48 -73 -21 -59 69 36 145 176 163 303 10 70 9 93 -5 159 -20 94
-52 145 -115 185 -80 51 -167 62 -247 33z"/>
<path d="M663 1040 c-43 -26 -63 -68 -63 -130 0 -56 23 -111 62 -147 27 -26
88 -53 118 -53 29 0 17 16 -18 23 -66 13 -121 93 -122 174 0 59 31 93 92 100
41 5 48 3 63 -21 10 -14 26 -26 36 -26 28 0 24 45 -6 75 -31 32 -114 35 -162
5z"/>
<path d="M4055 1035 c-29 -28 -34 -75 -9 -75 9 0 25 12 37 26 18 23 25 26 66
21 86 -10 115 -86 70 -182 -24 -51 -60 -84 -101 -92 -30 -6 -49 -23 -26 -23
33 0 90 23 119 47 88 74 92 231 7 283 -49 30 -131 28 -163 -5z"/>
<path d="M214 976 c-35 -15 -44 -32 -44 -80 0 -71 52 -104 185 -115 52 -4 101
-14 110 -21 10 -8 15 -9 15 -1 0 19 -57 41 -107 41 -100 0 -163 37 -163 96 0
36 26 59 54 48 22 -9 20 -21 -5 -27 -24 -6 -23 -34 2 -50 13 -8 24 -6 44 7 23
15 26 23 21 49 -11 56 -57 77 -112 53z"/>
<path d="M4593 980 c-44 -18 -56 -75 -23 -105 17 -15 24 -16 45 -7 30 14 33
42 5 49 -23 6 -26 19 -7 26 25 8 57 -15 57 -43 0 -63 -63 -100 -168 -100 -52
0 -102 -21 -102 -42 0 -6 7 -5 15 2 9 7 58 17 110 21 56 5 107 15 127 25 18
10 39 17 45 16 17 -4 64 22 85 44 40 45 26 114 -20 100 -19 -6 -22 -15 -22
-55 0 -35 -5 -53 -20 -66 -21 -19 -42 -13 -22 7 15 15 16 72 2 98 -5 10 -24
23 -41 29 -37 13 -37 13 -66 1z"/>
<path d="M730 913 c-17 -22 -21 -37 -17 -66 10 -73 66 -108 208 -132 220 -36
326 -76 468 -173 41 -28 77 -50 79 -48 7 8 -95 150 -134 188 -43 41 -109 74
-176 87 -24 5 -50 12 -60 15 -11 5 -18 1 -23 -13 -9 -29 -43 -27 -57 4 -9 21
-8 28 7 45 22 24 53 26 83 4 30 -20 41 -10 17 16 -44 48 -164 53 -213 8 -47
-44 -70 -52 -98 -33 -26 17 -28 23 -15 44 6 9 11 10 15 2 11 -16 43 -13 50 5
19 49 -5 74 -73 74 -31 0 -44 -6 -61 -27z"/>
<path d="M4026 927 c-12 -9 -17 -23 -14 -42 3 -27 7 -30 36 -29 25 2 32 -2 32
-17 0 -41 -66 -45 -100 -4 -51 62 -179 59 -235 -5 l-20 -23 20 8 c11 4 32 12
46 18 21 8 32 7 53 -6 30 -20 33 -39 10 -61 -22 -22 -45 -20 -51 5 -4 14 -11
18 -22 13 -9 -3 -35 -10 -59 -15 -56 -11 -123 -41 -167 -75 -30 -22 -145 -180
-145 -198 0 -3 37 19 83 48 164 107 225 130 441 167 170 29 223 60 233 137 5
34 1 45 -20 66 -29 29 -90 36 -121 13z"/>
<path d="M516 883 c-33 -33 -40 -60 -26 -98 10 -26 8 -32 -25 -65 -50 -51 -45
-98 13 -129 28 -15 77 0 87 27 9 23 -9 36 -34 22 -24 -12 -41 -6 -41 16 0 23
37 31 106 21 68 -10 134 -3 134 14 0 6 -4 8 -8 5 -14 -8 -84 14 -116 37 -39
28 -69 97 -60 142 3 19 4 35 1 35 -2 0 -16 -12 -31 -27z"/>
<path d="M4328 860 c5 -68 -22 -111 -93 -146 -30 -14 -62 -24 -70 -20 -8 3
-15 1 -15 -4 0 -16 70 -23 133 -13 33 6 69 8 78 6 21 -6 30 -25 19 -42 -6 -10
-12 -11 -30 -1 -26 14 -44 2 -34 -24 6 -16 42 -36 64 -36 5 0 22 12 39 26 43
36 41 71 -5 113 -28 26 -34 38 -29 55 18 56 17 64 -15 100 -18 20 -35 36 -39
36 -3 0 -4 -22 -3 -50z"/>
<path d="M1525 798 c-26 -31 -27 -37 -22 -104 9 -124 78 -229 225 -346 81 -64
259 -174 268 -165 3 3 -22 23 -56 44 -162 100 -286 212 -332 302 -34 67 -17
154 28 137 21 -8 13 -42 -9 -38 -21 4 -23 -16 -2 -24 39 -15 60 49 27 79 -25
23 -34 21 -62 -8 -16 -17 -23 -36 -23 -66 0 -29 -2 -37 -9 -26 -4 9 -6 45 -4
81 5 55 3 64 -9 60 -24 -10 -18 42 7 66 27 25 44 25 58 0 9 -17 8 -20 -12 -17
-15 1 -23 -3 -23 -13 0 -10 10 -15 30 -15 25 0 31 4 33 26 7 63 -68 80 -113
27z"/>
<path d="M3255 814 c-9 -9 -15 -28 -13 -43 2 -20 9 -27 29 -29 17 -2 29 3 32
12 7 18 -8 30 -28 22 -20 -7 -19 8 0 24 13 11 21 10 43 -7 32 -23 45 -80 17
-69 -14 5 -16 2 -11 -19 4 -14 2 -25 -4 -25 -6 0 -5 -9 2 -25 8 -18 8 -34 1
-57 l-11 -33 -1 46 c-1 54 -35 95 -70 84 -24 -7 -38 -51 -24 -74 12 -20 45
-21 51 -2 3 9 -1 11 -17 6 -17 -5 -21 -2 -21 15 0 28 29 38 46 15 18 -24 18
-77 0 -118 -33 -80 -182 -217 -334 -308 -41 -24 -69 -45 -63 -47 28 -9 264
152 357 243 97 97 138 179 138 280 1 64 -2 76 -23 99 -28 30 -71 34 -96 10z"/>
<path d="M2399 773 c-21 -25 -16 -152 11 -276 12 -60 26 -105 30 -100 4 4 17
54 29 111 24 117 27 238 7 265 -17 22 -59 22 -77 0z"/>
<path d="M2247 703 c-25 -24 17 -132 68 -173 10 -8 36 -42 57 -74 44 -68 44
-68 19 44 -24 104 -46 168 -68 192 -16 18 -63 25 -76 11z"/>
<path d="M2557 693 c-31 -35 -61 -130 -81 -258 l-7 -40 26 45 c15 24 46 65 70
91 55 58 77 102 73 142 -3 28 -7 32 -34 35 -19 2 -36 -3 -47 -15z"/>
<path d="M803 679 c-111 -21 -183 -80 -183 -149 0 -22 7 -45 16 -54 40 -41
108 -26 102 22 -4 36 -49 39 -58 5 -6 -25 -22 -19 -33 11 -10 27 25 78 71 104
49 27 147 40 280 37 56 -1 100 0 98 2 -8 9 -163 32 -206 32 -25 -1 -64 -5 -87
-10z"/>
<path d="M3870 679 c-85 -17 -78 -24 23 -23 114 2 218 -11 259 -32 67 -35 100
-103 64 -133 -11 -9 -15 -6 -20 14 -8 31 -41 34 -56 4 -9 -16 -8 -25 6 -40 22
-25 55 -24 88 2 38 30 36 87 -5 133 -58 67 -222 100 -359 75z"/>
<path d="M934 616 c-61 -27 -82 -88 -44 -126 37 -37 107 -18 98 27 -5 26 -38
29 -45 4 -6 -23 -11 -25 -31 -12 -21 13 -10 52 19 73 38 28 134 26 235 -6 84
-27 179 -78 389 -211 163 -102 170 -106 115 -55 -68 61 -305 219 -387 256 -39
18 -95 40 -124 48 -64 19 -183 20 -225 2z"/>
<path d="M3692 604 c-89 -30 -133 -51 -237 -117 -100 -64 -297 -209 -291 -215
3 -2 65 34 139 81 177 113 318 192 392 218 81 29 201 37 243 15 35 -18 49 -50
32 -71 -17 -20 -27 -19 -33 5 -6 24 -29 26 -47 5 -10 -13 -10 -19 5 -35 37
-40 115 -11 115 43 0 91 -158 126 -318 71z"/>
<path d="M572 558 c-71 -75 -97 -211 -57 -303 52 -122 208 -187 322 -135 92
41 111 149 40 228 -26 28 -82 30 -96 3 -14 -26 9 -45 47 -37 20 5 33 2 44 -11
21 -23 34 -73 19 -73 -6 0 -11 4 -11 8 0 5 -12 14 -26 21 -22 10 -31 9 -50 -4
-27 -18 -28 -19 -14 -46 13 -23 28 -24 51 -3 16 14 18 14 24 -5 8 -28 -1 -40
-41 -57 -93 -39 -216 11 -265 108 -41 80 -35 170 16 248 20 31 41 90 32 90 -2
0 -17 -15 -35 -32z"/>
<path d="M4274 565 c4 -16 18 -47 31 -67 48 -73 54 -171 15 -248 -48 -95 -173
-144 -265 -105 -38 15 -51 35 -41 61 6 15 8 15 25 0 23 -21 51 -11 51 20 0 44
-50 52 -94 15 -18 -15 -19 -15 -12 14 10 43 31 60 74 60 32 0 37 3 37 24 0 54
-71 43 -112 -18 -42 -62 -22 -155 41 -196 65 -43 202 -24 273 39 111 96 112
299 2 402 l-32 29 7 -30z"/>
<path d="M2160 555 c-23 -28 14 -62 123 -115 56 -26 103 -47 105 -46 1 2 -18
30 -42 64 -66 89 -154 135 -186 97z"/>
<path d="M2629 550 c-38 -20 -91 -76 -122 -129 l-17 -30 97 46 c116 54 135 68
131 102 -4 34 -40 38 -89 11z"/>
<path d="M1245 422 c-16 -11 -36 -26 -44 -35 -20 -25 4 -22 42 6 24 16 46 22
87 22 62 -1 114 -26 293 -142 116 -75 286 -163 313 -162 10 0 -14 16 -54 34
-41 19 -150 85 -244 146 -93 61 -192 120 -219 130 -63 24 -135 24 -174 1z"/>
<path d="M3460 421 c-49 -19 -78 -36 -245 -147 -60 -40 -150 -93 -200 -118
-49 -25 -82 -45 -72 -46 26 0 189 84 308 160 185 120 236 144 299 145 42 0 63
-6 88 -24 36 -25 54 -22 31 5 -37 45 -131 56 -209 25z"/>
<path d="M1085 397 c-86 -48 -113 -150 -57 -207 53 -52 142 -48 163 7 8 22 6
32 -9 52 -22 30 -69 35 -85 10 -15 -25 -1 -49 29 -49 16 0 24 -5 22 -12 -11
-33 -96 -9 -119 34 -29 54 43 152 121 164 22 4 40 10 40 15 0 17 -65 8 -105
-14z"/>
<path d="M3690 411 c0 -5 18 -11 40 -15 77 -12 143 -100 121 -159 -17 -45
-107 -75 -119 -39 -2 7 6 12 22 12 49 0 45 61 -3 68 -26 4 -71 -33 -71 -58 0
-53 70 -83 133 -57 94 40 85 172 -16 232 -42 24 -107 34 -107 16z"/>
<path d="M2265 403 c-52 -12 -94 -88 -76 -136 13 -33 48 -57 87 -57 50 0 84
56 52 88 -15 15 -70 16 -86 0 -19 -19 -26 19 -8 47 28 43 77 42 129 -3 23 -20
23 -94 0 -133 -10 -17 -40 -41 -69 -55 -66 -32 -173 -36 -254 -9 -58 19 -213
95 -290 141 -69 42 -28 1 52 -52 79 -53 199 -106 276 -123 186 -39 332 39 332
178 0 72 -75 130 -145 114z"/>
<path d="M2553 399 c-71 -20 -102 -103 -69 -182 43 -103 213 -145 371 -92 82
28 208 94 251 131 37 33 33 32 -66 -20 -158 -83 -232 -108 -316 -108 -119 0
-190 33 -217 101 -9 21 -14 52 -11 68 15 80 119 109 154 43 12 -22 -2 -62 -14
-41 -9 15 -69 14 -84 -1 -7 -7 -12 -24 -12 -40 0 -73 135 -59 154 17 8 32 -16
89 -46 108 -34 22 -59 26 -95 16z"/>
</g>
</svg>
